<mxfile host="Electron" modified="2023-11-26T20:35:21.991Z" agent="Mozilla/5.0 (Macintosh; Intel Mac OS X 10_15_7) AppleWebKit/537.36 (KHTML, like Gecko) draw.io/22.1.2 Chrome/114.0.5735.289 Electron/25.9.4 Safari/537.36" etag="zSvpvgk8wbBY7jKs5SBl" version="22.1.2" type="device" pages="2">
  <diagram name="Страница — 1" id="QPFRv3C3b8ydQwGVWbm1">
    <mxGraphModel dx="1224" dy="1120" grid="1" gridSize="10" guides="1" tooltips="1" connect="1" arrows="1" fold="1" page="1" pageScale="1" pageWidth="827" pageHeight="1169" math="0" shadow="0">
      <root>
        <mxCell id="0" />
        <mxCell id="1" parent="0" />
        <mxCell id="_H-ZOeBm3y4erVnzRHaN-31" value="" style="edgeStyle=orthogonalEdgeStyle;rounded=0;orthogonalLoop=1;jettySize=auto;html=1;" edge="1" parent="1" source="_H-ZOeBm3y4erVnzRHaN-1" target="_H-ZOeBm3y4erVnzRHaN-13">
          <mxGeometry relative="1" as="geometry" />
        </mxCell>
        <mxCell id="_H-ZOeBm3y4erVnzRHaN-36" value="" style="edgeStyle=orthogonalEdgeStyle;rounded=0;orthogonalLoop=1;jettySize=auto;html=1;" edge="1" parent="1" source="_H-ZOeBm3y4erVnzRHaN-1" target="_H-ZOeBm3y4erVnzRHaN-12">
          <mxGeometry relative="1" as="geometry" />
        </mxCell>
        <mxCell id="_H-ZOeBm3y4erVnzRHaN-39" value="" style="edgeStyle=orthogonalEdgeStyle;rounded=0;orthogonalLoop=1;jettySize=auto;html=1;" edge="1" parent="1" source="_H-ZOeBm3y4erVnzRHaN-1" target="_H-ZOeBm3y4erVnzRHaN-10">
          <mxGeometry relative="1" as="geometry" />
        </mxCell>
        <mxCell id="_H-ZOeBm3y4erVnzRHaN-1" value="Регистрация" style="ellipse;whiteSpace=wrap;html=1;" vertex="1" parent="1">
          <mxGeometry x="180" y="315" width="140" height="70" as="geometry" />
        </mxCell>
        <mxCell id="_H-ZOeBm3y4erVnzRHaN-29" value="" style="edgeStyle=orthogonalEdgeStyle;rounded=0;orthogonalLoop=1;jettySize=auto;html=1;" edge="1" parent="1" source="_H-ZOeBm3y4erVnzRHaN-2" target="_H-ZOeBm3y4erVnzRHaN-1">
          <mxGeometry relative="1" as="geometry" />
        </mxCell>
        <mxCell id="_H-ZOeBm3y4erVnzRHaN-2" value="Actor" style="shape=umlActor;verticalLabelPosition=bottom;verticalAlign=top;html=1;movable=1;resizable=1;rotatable=1;deletable=1;editable=1;locked=0;connectable=1;" vertex="1" parent="1">
          <mxGeometry x="70" y="320" width="30" height="60" as="geometry" />
        </mxCell>
        <mxCell id="_H-ZOeBm3y4erVnzRHaN-40" style="edgeStyle=orthogonalEdgeStyle;rounded=0;orthogonalLoop=1;jettySize=auto;html=1;entryX=0;entryY=0.5;entryDx=0;entryDy=0;" edge="1" parent="1" source="_H-ZOeBm3y4erVnzRHaN-3" target="_H-ZOeBm3y4erVnzRHaN-22">
          <mxGeometry relative="1" as="geometry" />
        </mxCell>
        <mxCell id="_H-ZOeBm3y4erVnzRHaN-41" style="edgeStyle=orthogonalEdgeStyle;rounded=0;orthogonalLoop=1;jettySize=auto;html=1;entryX=0;entryY=0.5;entryDx=0;entryDy=0;" edge="1" parent="1" source="_H-ZOeBm3y4erVnzRHaN-3" target="_H-ZOeBm3y4erVnzRHaN-26">
          <mxGeometry relative="1" as="geometry" />
        </mxCell>
        <mxCell id="_H-ZOeBm3y4erVnzRHaN-3" value="Actor" style="shape=umlActor;verticalLabelPosition=bottom;verticalAlign=top;html=1;" vertex="1" parent="1">
          <mxGeometry x="70" y="740" width="30" height="60" as="geometry" />
        </mxCell>
        <mxCell id="_H-ZOeBm3y4erVnzRHaN-5" value="&lt;div style=&quot;font-size: 16px;&quot;&gt;&lt;span style=&quot;background-color: initial; font-size: 16px;&quot;&gt;UseCase диаграмма пациента и доктора&amp;nbsp;&lt;/span&gt;&lt;/div&gt;&lt;div style=&quot;font-size: 16px;&quot;&gt;&lt;span style=&quot;background-color: initial; font-size: 16px;&quot;&gt;в приложении автоматизации работы поликлиники.&lt;/span&gt;&lt;/div&gt;" style="text;align=left;fontStyle=1;verticalAlign=middle;spacingLeft=3;spacingRight=3;strokeColor=none;rotatable=0;points=[[0,0.5],[1,0.5]];portConstraint=eastwest;html=1;fontSize=16;" vertex="1" parent="1">
          <mxGeometry x="50" y="50" width="690" height="30" as="geometry" />
        </mxCell>
        <mxCell id="_H-ZOeBm3y4erVnzRHaN-56" style="edgeStyle=orthogonalEdgeStyle;rounded=0;orthogonalLoop=1;jettySize=auto;html=1;" edge="1" parent="1" source="_H-ZOeBm3y4erVnzRHaN-10" target="_H-ZOeBm3y4erVnzRHaN-26">
          <mxGeometry relative="1" as="geometry" />
        </mxCell>
        <mxCell id="_H-ZOeBm3y4erVnzRHaN-10" value="Запись на прием" style="ellipse;whiteSpace=wrap;html=1;" vertex="1" parent="1">
          <mxGeometry x="180" y="455" width="140" height="70" as="geometry" />
        </mxCell>
        <mxCell id="_H-ZOeBm3y4erVnzRHaN-57" style="edgeStyle=orthogonalEdgeStyle;rounded=0;orthogonalLoop=1;jettySize=auto;html=1;entryX=0.5;entryY=1;entryDx=0;entryDy=0;exitX=1;exitY=0.5;exitDx=0;exitDy=0;" edge="1" parent="1" source="_H-ZOeBm3y4erVnzRHaN-12" target="_H-ZOeBm3y4erVnzRHaN-23">
          <mxGeometry relative="1" as="geometry">
            <Array as="points">
              <mxPoint x="780" y="350" />
              <mxPoint x="780" y="850" />
              <mxPoint x="460" y="850" />
            </Array>
          </mxGeometry>
        </mxCell>
        <mxCell id="_H-ZOeBm3y4erVnzRHaN-12" value="История болезни" style="ellipse;whiteSpace=wrap;html=1;" vertex="1" parent="1">
          <mxGeometry x="390" y="315" width="140" height="70" as="geometry" />
        </mxCell>
        <mxCell id="_H-ZOeBm3y4erVnzRHaN-32" value="" style="edgeStyle=orthogonalEdgeStyle;rounded=0;orthogonalLoop=1;jettySize=auto;html=1;" edge="1" parent="1" source="_H-ZOeBm3y4erVnzRHaN-13" target="_H-ZOeBm3y4erVnzRHaN-14">
          <mxGeometry relative="1" as="geometry" />
        </mxCell>
        <mxCell id="_H-ZOeBm3y4erVnzRHaN-13" value="Аутентификация" style="ellipse;whiteSpace=wrap;html=1;" vertex="1" parent="1">
          <mxGeometry x="180" y="205" width="140" height="70" as="geometry" />
        </mxCell>
        <mxCell id="_H-ZOeBm3y4erVnzRHaN-34" style="edgeStyle=orthogonalEdgeStyle;rounded=0;orthogonalLoop=1;jettySize=auto;html=1;entryX=0;entryY=0.5;entryDx=0;entryDy=0;" edge="1" parent="1" source="_H-ZOeBm3y4erVnzRHaN-14" target="_H-ZOeBm3y4erVnzRHaN-16">
          <mxGeometry relative="1" as="geometry" />
        </mxCell>
        <mxCell id="_H-ZOeBm3y4erVnzRHaN-35" style="edgeStyle=orthogonalEdgeStyle;rounded=0;orthogonalLoop=1;jettySize=auto;html=1;entryX=0;entryY=0.5;entryDx=0;entryDy=0;" edge="1" parent="1" source="_H-ZOeBm3y4erVnzRHaN-14" target="_H-ZOeBm3y4erVnzRHaN-15">
          <mxGeometry relative="1" as="geometry" />
        </mxCell>
        <mxCell id="_H-ZOeBm3y4erVnzRHaN-14" value="Персональные данные" style="ellipse;whiteSpace=wrap;html=1;" vertex="1" parent="1">
          <mxGeometry x="390" y="205" width="140" height="70" as="geometry" />
        </mxCell>
        <mxCell id="_H-ZOeBm3y4erVnzRHaN-15" value="Паспорт" style="ellipse;whiteSpace=wrap;html=1;" vertex="1" parent="1">
          <mxGeometry x="600" y="150" width="140" height="70" as="geometry" />
        </mxCell>
        <mxCell id="_H-ZOeBm3y4erVnzRHaN-16" value="Страховка" style="ellipse;whiteSpace=wrap;html=1;" vertex="1" parent="1">
          <mxGeometry x="600" y="260" width="140" height="70" as="geometry" />
        </mxCell>
        <mxCell id="_H-ZOeBm3y4erVnzRHaN-38" value="" style="edgeStyle=orthogonalEdgeStyle;rounded=0;orthogonalLoop=1;jettySize=auto;html=1;" edge="1" parent="1" source="_H-ZOeBm3y4erVnzRHaN-17" target="_H-ZOeBm3y4erVnzRHaN-12">
          <mxGeometry relative="1" as="geometry" />
        </mxCell>
        <mxCell id="_H-ZOeBm3y4erVnzRHaN-17" value="Изменение истории. болезни" style="ellipse;whiteSpace=wrap;html=1;" vertex="1" parent="1">
          <mxGeometry x="390" y="455" width="140" height="70" as="geometry" />
        </mxCell>
        <mxCell id="_H-ZOeBm3y4erVnzRHaN-54" value="" style="edgeStyle=orthogonalEdgeStyle;rounded=0;orthogonalLoop=1;jettySize=auto;html=1;" edge="1" parent="1" source="_H-ZOeBm3y4erVnzRHaN-18" target="_H-ZOeBm3y4erVnzRHaN-17">
          <mxGeometry relative="1" as="geometry" />
        </mxCell>
        <mxCell id="_H-ZOeBm3y4erVnzRHaN-18" value="Назначение лечения" style="ellipse;whiteSpace=wrap;html=1;" vertex="1" parent="1">
          <mxGeometry x="600" y="455" width="140" height="70" as="geometry" />
        </mxCell>
        <mxCell id="_H-ZOeBm3y4erVnzRHaN-52" value="" style="edgeStyle=orthogonalEdgeStyle;rounded=0;orthogonalLoop=1;jettySize=auto;html=1;" edge="1" parent="1" source="_H-ZOeBm3y4erVnzRHaN-19" target="_H-ZOeBm3y4erVnzRHaN-25">
          <mxGeometry relative="1" as="geometry" />
        </mxCell>
        <mxCell id="_H-ZOeBm3y4erVnzRHaN-19" value="Диагноз" style="ellipse;whiteSpace=wrap;html=1;" vertex="1" parent="1">
          <mxGeometry x="600" y="735" width="140" height="70" as="geometry" />
        </mxCell>
        <mxCell id="_H-ZOeBm3y4erVnzRHaN-22" value="Специализация" style="ellipse;whiteSpace=wrap;html=1;" vertex="1" parent="1">
          <mxGeometry x="180" y="880" width="140" height="70" as="geometry" />
        </mxCell>
        <mxCell id="_H-ZOeBm3y4erVnzRHaN-55" value="" style="edgeStyle=orthogonalEdgeStyle;rounded=0;orthogonalLoop=1;jettySize=auto;html=1;" edge="1" parent="1" source="_H-ZOeBm3y4erVnzRHaN-23" target="_H-ZOeBm3y4erVnzRHaN-19">
          <mxGeometry relative="1" as="geometry" />
        </mxCell>
        <mxCell id="_H-ZOeBm3y4erVnzRHaN-23" value="Прием пациента" style="ellipse;whiteSpace=wrap;html=1;" vertex="1" parent="1">
          <mxGeometry x="390" y="735" width="140" height="70" as="geometry" />
        </mxCell>
        <mxCell id="_H-ZOeBm3y4erVnzRHaN-51" style="edgeStyle=orthogonalEdgeStyle;rounded=0;orthogonalLoop=1;jettySize=auto;html=1;entryX=0.5;entryY=1;entryDx=0;entryDy=0;" edge="1" parent="1" source="_H-ZOeBm3y4erVnzRHaN-24" target="_H-ZOeBm3y4erVnzRHaN-17">
          <mxGeometry relative="1" as="geometry" />
        </mxCell>
        <mxCell id="_H-ZOeBm3y4erVnzRHaN-24" value="Уточнение диагноза" style="ellipse;whiteSpace=wrap;html=1;" vertex="1" parent="1">
          <mxGeometry x="390" y="600" width="140" height="70" as="geometry" />
        </mxCell>
        <mxCell id="_H-ZOeBm3y4erVnzRHaN-48" value="" style="edgeStyle=orthogonalEdgeStyle;rounded=0;orthogonalLoop=1;jettySize=auto;html=1;" edge="1" parent="1" source="_H-ZOeBm3y4erVnzRHaN-25" target="_H-ZOeBm3y4erVnzRHaN-24">
          <mxGeometry relative="1" as="geometry" />
        </mxCell>
        <mxCell id="_H-ZOeBm3y4erVnzRHaN-53" value="" style="edgeStyle=orthogonalEdgeStyle;rounded=0;orthogonalLoop=1;jettySize=auto;html=1;" edge="1" parent="1" source="_H-ZOeBm3y4erVnzRHaN-25" target="_H-ZOeBm3y4erVnzRHaN-18">
          <mxGeometry relative="1" as="geometry" />
        </mxCell>
        <mxCell id="_H-ZOeBm3y4erVnzRHaN-25" value="Анализы" style="ellipse;whiteSpace=wrap;html=1;" vertex="1" parent="1">
          <mxGeometry x="600" y="600" width="140" height="70" as="geometry" />
        </mxCell>
        <mxCell id="_H-ZOeBm3y4erVnzRHaN-27" value="" style="edgeStyle=orthogonalEdgeStyle;rounded=0;orthogonalLoop=1;jettySize=auto;html=1;" edge="1" parent="1" source="_H-ZOeBm3y4erVnzRHaN-26" target="_H-ZOeBm3y4erVnzRHaN-23">
          <mxGeometry relative="1" as="geometry" />
        </mxCell>
        <mxCell id="_H-ZOeBm3y4erVnzRHaN-26" value="Расписание приемов" style="ellipse;whiteSpace=wrap;html=1;" vertex="1" parent="1">
          <mxGeometry x="180" y="735" width="140" height="70" as="geometry" />
        </mxCell>
        <mxCell id="_H-ZOeBm3y4erVnzRHaN-60" value="Пациент" style="text;align=center;fontStyle=1;verticalAlign=middle;spacingLeft=3;spacingRight=3;strokeColor=none;rotatable=0;points=[[0,0.5],[1,0.5]];portConstraint=eastwest;html=1;" vertex="1" parent="1">
          <mxGeometry x="45" y="400" width="80" height="26" as="geometry" />
        </mxCell>
        <mxCell id="_H-ZOeBm3y4erVnzRHaN-61" value="Доктор" style="text;align=center;fontStyle=1;verticalAlign=middle;spacingLeft=3;spacingRight=3;strokeColor=none;rotatable=0;points=[[0,0.5],[1,0.5]];portConstraint=eastwest;html=1;" vertex="1" parent="1">
          <mxGeometry x="50" y="820" width="80" height="26" as="geometry" />
        </mxCell>
      </root>
    </mxGraphModel>
  </diagram>
  <diagram id="cfOoqoUvWlrpperqNcya" name="Страница — 2">
    <mxGraphModel dx="510" dy="467" grid="1" gridSize="10" guides="1" tooltips="1" connect="1" arrows="1" fold="1" page="1" pageScale="1" pageWidth="827" pageHeight="1169" math="0" shadow="0">
      <root>
        <mxCell id="0" />
        <mxCell id="1" parent="0" />
        <mxCell id="HIO7FuC0G_7oxviD3BaJ-1" value="ERD домена приложения автоматизации работы поликлиники" style="text;align=left;fontStyle=1;verticalAlign=middle;spacingLeft=3;spacingRight=3;strokeColor=none;rotatable=0;points=[[0,0.5],[1,0.5]];portConstraint=eastwest;html=1;fontSize=16;" vertex="1" parent="1">
          <mxGeometry x="40" y="50" width="520" height="30" as="geometry" />
        </mxCell>
      </root>
    </mxGraphModel>
  </diagram>
</mxfile>
